<svg viewBox="0 0 180 35" fill="none" xmlns="http://www.w3.org/2000/svg">
<path d="M37.3125 23V10.2031H40.9248C42.0381 10.2031 43.0225 10.4492 43.8779 10.9414C44.7334 11.4336 45.3926 12.1338 45.8555 13.042C46.3242 13.9502 46.5615 14.9932 46.5674 16.1709V16.9883C46.5674 18.1953 46.333 19.2529 45.8643 20.1611C45.4014 21.0693 44.7363 21.7666 43.8691 22.2529C43.0078 22.7393 42.0029 22.9883 40.8545 23H37.3125ZM39 11.5918V21.6201H40.7754C42.0762 21.6201 43.0869 21.2158 43.8076 20.4072C44.5342 19.5986 44.8975 18.4473 44.8975 16.9531V16.2061C44.8975 14.7529 44.5547 13.625 43.8691 12.8223C43.1895 12.0137 42.2227 11.6035 40.9688 11.5918H39ZM58.3384 17.085H52.7925V21.6201H59.2349V23H51.105V10.2031H59.147V11.5918H52.7925V15.7051H58.3384V17.085ZM67.5518 20.7588L71.208 10.2031H73.0537L68.3077 23H66.8135L62.0762 10.2031H63.9131L67.5518 20.7588ZM80.5269 17.2959C79.0797 16.8799 78.025 16.3701 77.3629 15.7666C76.7066 15.1572 76.3785 14.4072 76.3785 13.5166C76.3785 12.5088 76.7798 11.6768 77.5826 11.0205C78.3912 10.3584 79.44 10.0273 80.7291 10.0273C81.608 10.0273 82.3902 10.1973 83.0757 10.5371C83.7672 10.877 84.3004 11.3457 84.6754 11.9434C85.0562 12.541 85.2466 13.1943 85.2466 13.9033H83.5504C83.5504 13.1299 83.3043 12.5234 82.8121 12.084C82.3199 11.6387 81.6255 11.416 80.7291 11.416C79.897 11.416 79.2466 11.6006 78.7779 11.9697C78.315 12.333 78.0836 12.8398 78.0836 13.4902C78.0836 14.0117 78.3033 14.4541 78.7427 14.8174C79.188 15.1748 79.941 15.5029 81.0015 15.8018C82.0679 16.1006 82.9 16.4316 83.4976 16.7949C84.1011 17.1523 84.5464 17.5713 84.8336 18.0518C85.1265 18.5322 85.273 19.0977 85.273 19.748C85.273 20.7852 84.8687 21.6172 84.0601 22.2441C83.2515 22.8652 82.1705 23.1758 80.817 23.1758C79.938 23.1758 79.1177 23.0088 78.356 22.6748C77.5943 22.335 77.0054 21.8721 76.5894 21.2861C76.1793 20.7002 75.9742 20.0352 75.9742 19.291H77.6705C77.6705 20.0645 77.9547 20.6768 78.523 21.1279C79.0972 21.5732 79.8619 21.7959 80.817 21.7959C81.7076 21.7959 82.3902 21.6143 82.8648 21.251C83.3394 20.8877 83.5767 20.3926 83.5767 19.7656C83.5767 19.1387 83.357 18.6553 82.9175 18.3154C82.4781 17.9697 81.6812 17.6299 80.5269 17.2959ZM96.6573 17.085H91.1114V21.6201H97.5538V23H89.4239V10.2031H97.4659V11.5918H91.1114V15.7051H96.6573V17.085ZM106.328 17.8232H103.322V23H101.626V10.2031H105.862C107.303 10.2031 108.411 10.5312 109.184 11.1875C109.963 11.8438 110.353 12.7988 110.353 14.0527C110.353 14.8496 110.136 15.5439 109.703 16.1357C109.275 16.7275 108.677 17.1699 107.91 17.4629L110.916 22.8945V23H109.105L106.328 17.8232ZM103.322 16.4434H105.915C106.753 16.4434 107.418 16.2266 107.91 15.793C108.408 15.3594 108.657 14.7793 108.657 14.0527C108.657 13.2617 108.42 12.6553 107.945 12.2334C107.476 11.8115 106.796 11.5977 105.906 11.5918H103.322V16.4434ZM118.767 20.7588L122.423 10.2031H124.269L119.523 23H118.028L113.291 10.2031H115.128L118.767 20.7588ZM129.782 23H128.094V10.2031H129.782V23ZM144.269 18.9395C144.111 20.293 143.61 21.3389 142.766 22.0771C141.928 22.8096 140.812 23.1758 139.417 23.1758C137.905 23.1758 136.693 22.6338 135.778 21.5498C134.87 20.4658 134.416 19.0156 134.416 17.1992V15.9688C134.416 14.7793 134.627 13.7334 135.049 12.8311C135.477 11.9287 136.08 11.2373 136.86 10.7568C137.639 10.2705 138.541 10.0273 139.567 10.0273C140.926 10.0273 142.016 10.4082 142.836 11.1699C143.656 11.9258 144.134 12.9746 144.269 14.3164H142.572C142.426 13.2969 142.107 12.5586 141.614 12.1016C141.128 11.6445 140.445 11.416 139.567 11.416C138.488 11.416 137.642 11.8145 137.027 12.6113C136.417 13.4082 136.112 14.542 136.112 16.0127V17.252C136.112 18.6406 136.402 19.7451 136.983 20.5654C137.563 21.3857 138.374 21.7959 139.417 21.7959C140.355 21.7959 141.072 21.585 141.57 21.1631C142.074 20.7354 142.408 19.9941 142.572 18.9395H144.269ZM155.794 17.085H150.248V21.6201H156.69V23H148.56V10.2031H156.602V11.5918H150.248V15.7051H155.794V17.085ZM164.541 17.2959C163.094 16.8799 162.039 16.3701 161.377 15.7666C160.721 15.1572 160.393 14.4072 160.393 13.5166C160.393 12.5088 160.794 11.6768 161.597 11.0205C162.405 10.3584 163.454 10.0273 164.743 10.0273C165.622 10.0273 166.404 10.1973 167.09 10.5371C167.781 10.877 168.315 11.3457 168.69 11.9434C169.071 12.541 169.261 13.1943 169.261 13.9033H167.565C167.565 13.1299 167.319 12.5234 166.826 12.084C166.334 11.6387 165.64 11.416 164.743 11.416C163.911 11.416 163.261 11.6006 162.792 11.9697C162.329 12.333 162.098 12.8398 162.098 13.4902C162.098 14.0117 162.318 14.4541 162.757 14.8174C163.202 15.1748 163.955 15.5029 165.016 15.8018C166.082 16.1006 166.914 16.4316 167.512 16.7949C168.115 17.1523 168.561 17.5713 168.848 18.0518C169.141 18.5322 169.287 19.0977 169.287 19.748C169.287 20.7852 168.883 21.6172 168.074 22.2441C167.266 22.8652 166.185 23.1758 164.831 23.1758C163.952 23.1758 163.132 23.0088 162.37 22.6748C161.609 22.335 161.02 21.8721 160.604 21.2861C160.194 20.7002 159.988 20.0352 159.988 19.291H161.685C161.685 20.0645 161.969 20.6768 162.537 21.1279C163.112 21.5732 163.876 21.7959 164.831 21.7959C165.722 21.7959 166.404 21.6143 166.879 21.251C167.354 20.8877 167.591 20.3926 167.591 19.7656C167.591 19.1387 167.371 18.6553 166.932 18.3154C166.492 17.9697 165.696 17.6299 164.541 17.2959Z" fill="#EDF0F1"/>
<path d="M174.5 31H32.5V1.5H174.5V31Z" stroke="#A0770B" stroke-width="2"/>
</svg>
